HIERARCHY
ROOT root
{
	OFFSET 0.000000 0.000000 0.000000
	CHANNELS 6 Xposition Yposition Zposition Zrotation Yrotation Xrotation
	JOINT lhip
	{
		OFFSET 0.058581 -0.082280 -0.017664
		CHANNELS 3 Zrotation Yrotation Xrotation
		JOINT lknee
		{
			OFFSET 0.043451 -0.386469 0.008037
			CHANNELS 3 Zrotation Yrotation Xrotation
			JOINT lankle
			{
				OFFSET -0.014790 -0.426874 -0.037428
				CHANNELS 3 Zrotation Yrotation Xrotation
				JOINT ltoe
				{
					OFFSET 0.041054 -0.060286 0.122042
					CHANNELS 3 Zrotation Yrotation Xrotation
					End Site
					{
						OFFSET 0.000000 0.000000 0.000000
					}
				}
			}
		}
	}
	JOINT rhip
	{
		OFFSET -0.060310 -0.090513 -0.013543
		CHANNELS 3 Zrotation Yrotation Xrotation
		JOINT rknee
		{
			OFFSET -0.043257 -0.383688 -0.004843
			CHANNELS 3 Zrotation Yrotation Xrotation
			JOINT rankle
			{
				OFFSET 0.019056 -0.420046 -0.034562
				CHANNELS 3 Zrotation Yrotation Xrotation
				JOINT rtoe
				{
					OFFSET -0.034840 -0.062106 0.130323
					CHANNELS 3 Zrotation Yrotation Xrotation
					End Site
					{
						OFFSET 0.000000 0.000000 0.000000
					}
				}
			}
		}
	}
	JOINT lowerback
	{
		OFFSET 0.004439 0.124404 -0.038385
		CHANNELS 3 Zrotation Yrotation Xrotation
		JOINT upperback
		{
			OFFSET 0.004488 0.137956 0.026820
			CHANNELS 3 Zrotation Yrotation Xrotation
			JOINT chest
			{
				OFFSET -0.002265 0.056032 0.002855
				CHANNELS 3 Zrotation Yrotation Xrotation
				JOINT lowerneck
				{
					OFFSET -0.013390 0.211636 -0.033468
					CHANNELS 3 Zrotation Yrotation Xrotation
					JOINT upperneck
					{
						OFFSET 0.010113 0.088937 0.050410
						CHANNELS 3 Zrotation Yrotation Xrotation
						End Site
						{
							OFFSET 0.000000 0.000000 0.000000
						}
					}
				}
				JOINT lclavicle
				{
					OFFSET 0.071702 0.114000 -0.018898
					CHANNELS 3 Zrotation Yrotation Xrotation
					JOINT lshoulder
					{
						OFFSET 0.122921 0.045205 -0.019046
						CHANNELS 3 Zrotation Yrotation Xrotation
						JOINT lelbow
						{
							OFFSET 0.255332 -0.015649 -0.022946
							CHANNELS 3 Zrotation Yrotation Xrotation
							JOINT lwrist
							{
								OFFSET 0.265709 0.012698 -0.007375
								CHANNELS 3 Zrotation Yrotation Xrotation
								End Site
								{
									OFFSET 0.000000 0.000000 0.000000
								}
							}
						}
					}
				}
				JOINT rclavicle
				{
					OFFSET -0.082954 0.112472 -0.023707
					CHANNELS 3 Zrotation Yrotation Xrotation
					JOINT rshoulder
					{
						OFFSET -0.113228 0.046853 -0.008472
						CHANNELS 3 Zrotation Yrotation Xrotation
						JOINT relbow
						{
							OFFSET -0.260127 -0.014369 -0.031269
							CHANNELS 3 Zrotation Yrotation Xrotation
							JOINT rwrist
							{
								OFFSET -0.269108 0.006794 -0.006027
								CHANNELS 3 Zrotation Yrotation Xrotation
								End Site
								{
									OFFSET 0.000000 0.000000 0.000000
								}
							}
						}
					}
				}
			}
		}
	}
}
MOTION
Frames: 14
Frame Time: 0.033333
1.105755 -0.069828 0.288833 86.625215 -1.886361 46.647149 6.166975 9.690156 -62.475608 -1.512513 18.451453 19.263519 -4.170471 14.052817 17.157712 0.000000 -0.000000 0.000000 -9.595850 -7.871721 -50.402198 3.080018 -13.082699 4.140119 8.078374 -9.213091 -8.861579 0.000000 -0.000000 0.000000 4.235840 0.609910 27.727353 -0.263775 -2.427025 -1.577850 1.444751 0.663987 -0.189060 -6.156115 -1.108137 25.193166 5.421784 4.649453 -5.652222 -16.902769 10.147092 8.467082 -60.985807 23.867900 20.367453 -12.312430 -30.833919 32.710093 60.996714 -5.120894 -21.518201 3.846177 -9.115735 15.498973 51.854474 -27.538265 8.321206 29.405104 42.148250 40.161637 -64.130603 9.411834 -24.213837 
1.104936 -0.069709 0.288930 86.841153 -2.146201 46.186406 6.508499 9.741061 -64.218697 -1.574185 19.223429 23.971334 -4.073940 13.655373 16.780142 0.000000 -0.000000 0.000000 -9.805849 -7.877338 -50.023113 3.017922 -12.794023 4.204748 7.820676 -8.936401 -8.561277 0.000000 -0.000000 0.000000 4.181624 0.793708 28.308288 -0.264330 -2.520878 -1.956195 1.533399 0.698110 0.049591 -6.269988 -0.339449 25.982223 5.278611 5.296784 -6.412801 -17.352005 10.638429 8.424376 -60.094970 23.022737 20.571554 -12.790176 -30.375247 32.663391 61.172838 -5.792437 -21.546384 3.726744 -9.559873 15.333210 51.640101 -27.445814 8.299107 29.947981 41.947918 40.423622 -64.575638 9.759138 -24.320273 
1.104285 -0.069731 0.289306 87.047656 -2.368223 45.796064 6.828582 10.032903 -66.239739 -1.877069 19.966641 29.525492 -3.600551 13.373410 16.506541 0.000000 -0.000000 0.000000 -10.034415 -7.916159 -49.650194 3.051818 -12.516233 4.204772 7.597031 -8.819193 -8.582777 0.000000 -0.000000 0.000000 4.160602 0.969626 28.624842 -0.273058 -2.658742 -2.118607 1.618513 0.747780 0.187013 -6.386159 0.434164 26.621410 5.110373 6.213464 -6.904353 -17.660120 10.572972 8.425540 -59.658078 22.772669 20.500263 -13.042724 -30.280336 32.860307 61.259052 -5.828826 -21.605471 3.618844 -9.631031 15.444844 51.587210 -27.571180 7.993543 30.669565 42.009819 41.035402 -64.679314 9.662304 -24.356079 
1.103328 -0.069957 0.289585 87.370008 -2.578002 45.516556 7.144448 10.286314 -68.808293 -1.969925 21.096674 36.172098 -3.183259 13.136033 18.486220 0.000000 -0.000000 0.000000 -10.349540 -8.052004 -49.370562 3.073264 -12.438930 4.173561 7.209127 -8.739424 -8.728059 0.000000 -0.000000 0.000000 4.076663 1.153426 28.747914 -0.312650 -2.839122 -2.307464 1.755501 0.807935 0.338580 -6.453447 1.704107 27.373691 5.050537 7.694401 -7.500435 -17.931806 10.343367 8.362256 -59.186216 22.686122 20.373704 -13.473737 -30.188700 33.296456 61.645974 -5.600084 -21.742998 3.553932 -9.613765 15.619690 51.452606 -27.743759 7.753946 31.620493 42.114180 41.682163 -65.066215 9.625227 -24.284816 
1.102491 -0.070168 0.289684 87.546893 -2.660750 45.403738 7.341432 10.336612 -70.170663 -2.027091 21.598864 39.415201 -2.999888 12.945195 20.726383 0.000000 -0.000000 0.000000 -10.502525 -8.096482 -49.256393 3.059722 -12.420493 4.165441 6.817726 -8.698614 -8.683785 0.000000 -0.000000 0.000000 4.036496 1.219565 28.801543 -0.371450 -2.922136 -2.466464 1.859282 0.855012 0.462246 -6.392026 2.804474 27.814723 5.114343 8.970722 -8.087657 -18.172939 10.201002 8.157505 -58.778272 22.741970 20.334573 -13.751469 -30.123112 33.539696 61.864702 -5.503183 -21.816239 3.572588 -9.626600 15.615949 51.267797 -27.823436 7.743781 32.196707 42.098749 41.926975 -65.105008 9.628430 -24.209606 
1.101077 -0.070647 0.289785 87.678103 -2.702494 45.360355 7.621094 10.435140 -72.042610 -1.851146 22.316253 43.406178 -3.186210 12.523270 23.347468 0.000000 -0.000000 0.000000 -10.636570 -7.983300 -49.223027 3.003581 -12.478113 4.174043 6.395427 -8.582536 -8.906293 0.000000 -0.000000 0.000000 4.041870 1.290900 28.764433 -0.449369 -3.030542 -2.680059 1.997543 0.952891 0.644887 -5.969551 4.855458 28.179742 5.294586 11.157877 -8.987131 -18.505456 10.109145 7.761180 -58.219557 22.839926 20.265801 -14.009875 -29.967877 33.697581 61.893724 -5.574319 -21.854431 3.580744 -9.704445 15.606905 51.020117 -27.765829 7.724593 32.857080 41.966575 42.148477 -64.944637 9.787425 -24.054978 
1.099733 -0.071309 0.290100 87.723702 -2.792247 45.224059 7.894884 10.671568 -73.792867 -1.681076 22.929007 47.416865 -3.394789 12.140761 23.878553 0.000000 -0.000000 0.000000 -10.686471 -7.782681 -49.088776 2.927709 -12.408815 4.180125 5.988967 -8.358784 -8.719876 0.000000 -0.000000 0.000000 4.022147 1.414073 28.840254 -0.517176 -3.110341 -2.905655 2.106973 1.016912 0.870045 -5.115186 7.490890 28.382754 5.394647 13.753115 -10.161237 -18.692788 10.032952 7.373439 -57.875692 22.980612 20.173299 -14.090630 -29.870573 33.796730 61.716134 -5.671128 -21.885874 3.494893 -9.792476 15.624228 50.948555 -27.634023 7.549523 33.376454 41.797888 42.516509 -64.698198 9.820901 -24.012341 
1.098396 -0.071868 0.290594 87.733508 -2.992332 45.071012 8.086486 10.937553 -75.507152 -1.310926 23.490682 51.734240 -2.863755 12.169358 23.064099 0.000000 -0.000000 0.000000 -10.734648 -7.570369 -48.953899 2.885506 -12.241599 4.155763 5.767855 -8.226729 -8.795949 0.000000 -0.000000 0.000000 4.007069 1.614956 28.892989 -0.637717 -3.207549 -2.977743 2.149044 1.058156 0.962961 -4.138553 10.334014 28.375168 5.485259 16.625294 -11.257340 -18.872765 9.891325 7.154188 -57.544412 23.104588 19.950302 -14.175102 -29.803607 33.923700 61.381413 -5.762141 -21.885852 3.367683 -9.821774 15.815644 51.147151 -27.436623 7.158351 33.600791 41.639944 42.854426 -64.414702 9.776811 -23.989581 
1.097584 -0.072356 0.290943 87.726916 -3.190021 44.932721 8.296893 11.290542 -77.326518 -0.496942 24.133108 56.623502 -2.162572 12.430334 22.906025 0.000000 -0.000000 0.000000 -10.779060 -7.402793 -48.826315 2.859474 -12.152543 4.105797 5.523575 -8.169502 -8.826221 0.000000 -0.000000 0.000000 3.958085 1.771308 28.854197 -0.761140 -3.308885 -3.028527 2.186531 1.128230 1.086903 -3.214105 13.037265 28.222704 5.530750 19.335764 -12.175063 -18.919630 9.622412 7.126584 -57.423341 23.272520 19.636748 -14.292809 -29.818771 34.225945 61.159688 -5.634365 -21.985037 3.110960 -9.730423 16.169700 51.668113 -27.209480 6.609887 33.660643 41.479524 43.174482 -64.223288 9.597221 -23.944474 
1.096411 -0.072771 0.291481 87.733717 -3.409593 44.836469 8.595905 11.634437 -79.634947 0.203697 24.504006 62.731625 -1.597645 12.218455 24.205747 0.000000 -0.000000 0.000000 -10.856375 -7.197298 -48.770699 2.788993 -12.100185 4.111802 5.007710 -8.226836 -8.939013 0.000000 -0.000000 0.000000 3.933063 1.898901 28.809594 -0.965634 -3.449069 -3.101260 2.199291 1.261750 1.097473 -2.333044 15.652281 28.037755 5.642569 22.061661 -13.179972 -19.055190 9.218605 7.210576 -57.169562 23.474581 19.272243 -14.474177 -29.751322 34.538385 61.011342 -5.446098 -22.133992 2.804095 -9.523003 16.682307 52.434490 -26.923113 5.886422 33.543477 41.111473 43.408441 -64.092838 9.419763 -23.816610 
1.095415 -0.073146 0.292105 87.783548 -3.551558 44.763224 8.857556 11.779054 -81.342508 0.537700 24.672147 67.398943 -1.598086 11.918300 25.436230 0.000000 -0.000000 0.000000 -10.914551 -7.093335 -48.690909 2.734514 -12.034591 4.082071 4.577042 -8.295912 -9.044473 0.000000 -0.000000 0.000000 3.881237 2.034135 28.817307 -1.103649 -3.578052 -3.141503 2.215227 1.349142 1.096099 -1.849380 17.056264 27.745750 5.741866 23.501309 -13.888402 -19.168588 8.915849 7.310305 -56.990639 23.527388 19.067894 -14.516790 -29.668243 34.654045 60.995102 -5.281430 -22.246678 2.722712 -9.294327 16.998206 52.987793 -26.704596 5.433124 33.262087 40.734675 43.295244 -64.093856 9.163972 -23.795424 
1.094339 -0.073652 0.292785 87.864143 -3.669534 44.697000 9.109786 11.857693 -82.830100 0.783307 24.833450 71.634510 -1.600746 11.622325 26.545046 0.000000 -0.000000 0.000000 -10.961938 -7.046470 -48.591927 2.724671 -11.914283 4.005638 4.178038 -8.381774 -9.263890 0.000000 -0.000000 0.000000 3.823048 2.244460 28.923873 -1.212254 -3.693535 -3.247721 2.229178 1.378664 1.115878 -1.505991 17.869992 27.236262 5.844663 24.308417 -14.401601 -19.215317 8.671525 7.352893 -56.854146 23.526403 18.999307 -14.450855 -29.563891 34.709012 60.930727 -5.050070 -22.355599 2.792356 -9.117134 17.084943 53.366010 -26.587840 5.276820 32.883535 40.318468 43.097981 -64.009312 8.704483 -23.870605 
1.093304 -0.074171 0.293414 87.951046 -3.733948 44.664316 9.299430 11.926841 -84.218395 0.891500 24.795120 75.432353 -1.752362 11.198273 27.755537 0.000000 -0.000000 0.000000 -10.991942 -7.022423 -48.511093 2.737096 -11.798588 3.902056 3.901724 -8.426410 -9.666466 0.000000 -0.000000 0.000000 3.799759 2.458353 29.040704 -1.309061 -3.770007 -3.341529 2.248587 1.401245 1.118971 -1.311379 18.310955 26.677374 5.994071 24.650699 -14.867542 -19.218828 8.431567 7.410377 -56.802576 23.419806 18.859955 -14.334394 -29.365533 34.649274 60.959575 -5.005471 -22.366853 2.904979 -8.941739 17.130252 53.793338 -26.520932 4.961919 32.463969 39.920217 42.790630 -64.109090 8.608811 -23.762950 
1.092570 -0.074628 0.293900 88.045519 -3.758713 44.580657 9.429744 12.019929 -85.525199 0.796094 24.501880 78.908344 -1.892443 10.623708 29.386711 0.000000 -0.000000 0.000000 -10.969029 -7.061776 -48.361352 2.721284 -11.676824 3.797951 3.438252 -8.453971 -9.515702 0.000000 -0.000000 0.000000 3.779755 2.636204 29.259422 -1.383685 -3.809293 -3.454188 2.274287 1.438064 1.114153 -1.201093 18.493922 26.124764 6.107987 24.763360 -15.310599 -19.187389 8.142280 7.539626 -56.833001 23.282596 18.718022 -14.221798 -29.243242 34.656457 61.116125 -4.851200 -22.401718 2.959262 -8.739973 17.197911 54.320979 -26.432059 4.586694 32.069777 39.451083 42.510028 -64.216635 8.362747 -23.705152 
